<svg width="32" height="32" viewBox="0 0 32 32" fill="none" xmlns="http://www.w3.org/2000/svg">
<g id="Grupo 3947">
<g id="Grupo 19">
<path id="Trazado 37" d="M0.410156 23.9683V7.85182C0.535405 6.82554 0.830706 5.82818 1.28333 4.90199C1.9478 3.45833 3.00191 2.23619 4.32314 1.37775C5.64437 0.519308 7.17837 0.0598783 8.74648 0.052981C13.5905 -0.0488482 18.447 0.0271453 23.2878 0.0287616C24.0996 0.0402249 24.9046 0.181502 25.6732 0.447397C27.4234 1.03194 28.9461 2.16572 30.022 3.68564C31.0979 5.20557 31.6716 7.03324 31.6606 8.90564C31.6257 13.5849 31.6511 18.2626 31.6511 22.9403C31.6613 23.3536 31.6395 23.767 31.5859 24.1768C31.4026 25.6241 30.8653 27.0016 30.023 28.1833C29.1807 29.365 28.0602 30.3132 26.7642 30.9412C25.8737 31.373 24.9216 31.6588 23.9432 31.7881H8.08645L7.5792 31.6895C6.24055 31.4664 4.97327 30.9231 3.8817 30.1045C2.79013 29.2859 1.9055 28.2154 1.3008 26.9812C0.837868 26.0355 0.536621 25.0167 0.410156 23.9683ZM28.8124 15.9092V9.03014C28.8176 8.62761 28.7948 8.22518 28.7441 7.82593C28.5248 6.49438 27.8617 5.28002 26.8659 4.38653C25.8702 3.49303 24.6024 2.97479 23.2752 2.91876C18.4773 2.89452 13.6794 2.91874 8.88159 2.90904C8.60733 2.91278 8.33365 2.93601 8.06258 2.97855C6.75238 3.19987 5.55709 3.87299 4.67781 4.88473C3.79852 5.89646 3.28886 7.18512 3.23449 8.53391C3.21063 13.4088 3.23451 18.2869 3.22497 23.1617C3.22788 23.4405 3.25068 23.7188 3.29331 23.9942C3.51134 25.3257 4.17377 26.5404 5.16914 27.434C6.1645 28.3277 7.43214 28.8458 8.7591 28.9013C13.557 28.9256 18.3549 28.9014 23.1512 28.9111C23.4254 28.9074 23.6991 28.8841 23.9702 28.8416C25.2795 28.618 26.4737 27.9443 27.3528 26.9331C28.2319 25.9218 28.7427 24.6344 28.7998 23.2862C28.8316 20.8277 28.8124 18.3693 28.8124 15.9092Z" fill="#F0F0F0"/>
<path id="Trazado 38" d="M24.0957 15.9359C24.0909 17.5589 23.6127 19.144 22.7214 20.4907C21.8302 21.8375 20.5661 22.8853 19.0888 23.5016C17.6115 24.1179 15.9875 24.275 14.4224 23.9531C12.8573 23.6311 11.4211 22.8446 10.2959 21.693C9.17062 20.5414 8.40665 19.0764 8.10071 17.4834C7.79477 15.8905 7.96055 14.241 8.57709 12.7438C9.19363 11.2467 10.2334 9.96897 11.5645 9.07241C12.8956 8.17585 14.4583 7.70071 16.0552 7.70709C18.1947 7.71565 20.2434 8.58716 21.751 10.1301C23.2587 11.6731 24.102 13.7613 24.0957 15.9359ZM10.7946 15.8825C10.7886 16.9334 11.0893 17.9624 11.6586 18.8395C12.2279 19.7167 13.0404 20.4026 13.9932 20.8106C14.946 21.2186 15.9962 21.3304 17.0114 21.1318C18.0267 20.9333 18.9613 20.4332 19.697 19.695C20.4327 18.9567 20.9366 18.0132 21.145 16.984C21.3533 15.9547 21.2568 14.8858 20.8676 13.9122C20.4783 12.9387 19.8138 12.1044 18.9581 11.5146C18.1025 10.9248 17.0939 10.6061 16.06 10.5987C15.3724 10.5921 14.6902 10.7238 14.0528 10.9861C13.4154 11.2485 12.8354 11.6364 12.346 12.1275C11.8567 12.6185 11.4677 13.2031 11.2015 13.8475C10.9352 14.492 10.7969 15.1836 10.7946 15.8825Z" fill="#F0F0F0"/>
<path id="Trazado 39" d="M24.3959 9.49582C24.1262 9.49646 23.8589 9.44296 23.6095 9.33832C23.3602 9.23368 23.1337 9.07999 22.9429 8.88609C22.7521 8.6922 22.6009 8.4619 22.498 8.20844C22.395 7.95498 22.3422 7.68336 22.3429 7.40915C22.3231 7.12095 22.3622 6.83171 22.4574 6.5595C22.5526 6.28729 22.702 6.03792 22.8963 5.82705C23.0906 5.61618 23.3256 5.44829 23.5866 5.33388C23.8476 5.21947 24.129 5.16101 24.4132 5.16213C24.6975 5.16324 24.9785 5.22394 25.2386 5.34039C25.4988 5.45684 25.7324 5.62655 25.9251 5.83894C26.1177 6.05133 26.2654 6.30184 26.3585 6.57479C26.4517 6.84774 26.4884 7.13729 26.4665 7.42533C26.4644 7.6995 26.4092 7.97053 26.304 8.22299C26.1988 8.47546 26.0457 8.70441 25.8534 8.8967C25.6611 9.08899 25.4334 9.24084 25.1833 9.34365C24.9332 9.44645 24.6657 9.49816 24.3959 9.49582Z" fill="#F0F0F0"/>
</g>
</g>
</svg>
