<svg xmlns="http://www.w3.org/2000/svg" width="15" height="13" viewBox="0 0 15 13" fill="none">
  <path d="M7.56927 10.2467C6.90236 10.2467 6.35963 10.7893 6.35963 11.4562C6.35963 12.1232 6.90221 12.666 7.56927 12.666C8.23617 12.666 8.77874 12.1232 8.77874 11.4562C8.7789 10.7893 8.23633 10.2467 7.56927 10.2467ZM7.56927 12.0308C7.25249 12.0308 6.99478 11.7729 6.99478 11.4562C6.99478 11.1395 7.25249 10.8818 7.56927 10.8818C7.88589 10.8818 8.1436 11.1395 8.1436 11.4562C8.14375 11.7731 7.88604 12.0308 7.56927 12.0308ZM11.5407 10.2467C10.8738 10.2467 10.3312 10.7893 10.3312 11.4562C10.3312 12.1232 10.8738 12.666 11.5407 12.666C12.2076 12.666 12.7503 12.1232 12.7503 11.4562C12.7501 10.7893 12.2076 10.2467 11.5407 10.2467ZM11.5407 12.0308C11.2239 12.0308 10.9663 11.7729 10.9663 11.4562C10.9663 11.1395 11.224 10.8818 11.5407 10.8818C11.8574 10.8818 12.1152 11.1395 12.1152 11.4562C12.115 11.7731 11.8573 12.0308 11.5407 12.0308ZM14.4206 3.49732C14.302 3.35537 14.123 3.27391 13.9293 3.27391H4.91658C4.87816 3.27391 4.84037 3.27709 4.80369 3.28312L4.38687 0.975798C4.32272 0.622816 4.00706 0.348116 3.65138 0.334619C3.64233 0.334143 3.63359 0.333984 3.62438 0.333984H0.752417C0.577117 0.333984 0.434845 0.476257 0.434845 0.651557C0.434845 0.826857 0.577117 0.969129 0.752417 0.969129H3.62248C3.62391 0.969129 3.62534 0.969288 3.62677 0.969288C3.68329 0.971034 3.75157 1.03169 3.76189 1.08917L4.28589 3.98972C4.28763 4.00322 4.28954 4.01639 4.29192 4.02926L5.22765 9.20743C5.2918 9.56121 5.60889 9.83654 5.96553 9.84877C5.97569 9.84925 5.98633 9.84941 5.99633 9.84941H12.8559C12.8653 9.84941 12.874 9.84925 12.883 9.84877C13.2386 9.83527 13.5542 9.56057 13.6184 9.20727L14.554 4.02926C14.5892 3.83474 14.5405 3.64102 14.4206 3.49732ZM13.9299 3.90921C13.9298 3.91128 13.9294 3.91366 13.929 3.9162L13.5195 6.18271H5.32641L4.91674 3.91572C4.91643 3.9135 4.91611 3.91144 4.91579 3.90921H13.9299ZM12.8583 9.21394C12.8568 9.21394 12.8554 9.2141 12.854 9.2141H5.99173C5.99046 9.2141 5.98903 9.21394 5.98776 9.21394C5.93123 9.2122 5.86311 9.15154 5.85263 9.09406L5.44121 6.81722H13.4048L12.9936 9.09374C12.9829 9.1517 12.9146 9.2122 12.8583 9.21394Z" fill="#0193C1" stroke="#0193C1" stroke-width="0.5"/>
</svg>