<svg width="32" height="32" viewBox="0 0 32 32" fill="none" xmlns="http://www.w3.org/2000/svg">
<g id="Grupo 3948">
<g id="Grupo 21">
<path id="Trazado 40" d="M0.000814687 15.7953C0.000814687 11.9495 0.000814687 8.10318 0.000814687 4.25629C-0.00934839 3.69568 0.0924277 3.13877 0.299963 2.61865C0.507498 2.09852 0.81665 1.62585 1.20894 1.22877C1.60124 0.831689 2.06868 0.518309 2.58346 0.307298C3.09824 0.0962864 3.64974 -0.00806395 4.20531 0.00048595H27.1707C28.2268 -0.00246637 29.2448 0.398386 30.0198 1.12232C30.7949 1.84626 31.2695 2.83954 31.348 3.90233C31.3945 4.46481 31.4073 5.02568 31.4073 5.58816C31.4073 12.5578 31.4073 19.5264 31.4073 26.4938C31.4199 27.0569 31.378 27.62 31.2823 28.1749C31.0861 29.1988 30.5313 30.1173 29.7193 30.7625C28.9073 31.4077 27.8924 31.7365 26.86 31.6888C24.8659 31.7179 22.8733 31.6888 20.8792 31.7017C20.474 31.7017 20.3089 31.5659 20.3089 31.1441C20.2993 27.6689 20.3217 24.1938 20.3761 20.7187C20.3761 20.376 20.5251 20.2742 20.8407 20.2775C21.893 20.2871 22.947 20.2775 23.9993 20.2775C24.6224 20.2775 24.837 20.1045 24.9202 19.479C25.0708 18.3653 25.1989 17.2468 25.3127 16.1267C25.3607 15.6515 25.0709 15.3816 24.5343 15.3783C23.3538 15.3686 22.175 15.3783 20.9946 15.3783C20.3539 15.3783 20.3057 15.3444 20.3153 14.7011C20.2838 13.6878 20.3036 12.6736 20.3746 11.6623C20.3764 11.2206 20.5457 10.7963 20.8477 10.4765C21.1497 10.1567 21.5616 9.96569 21.9988 9.94257C22.76 9.86267 23.5261 9.83889 24.2909 9.87145C24.9988 9.85205 25.167 9.69367 25.1686 8.98248C25.1686 8.09834 25.1686 7.21258 25.1686 6.32683C25.1686 5.84193 24.9458 5.56229 24.4973 5.56552C23.1121 5.49291 21.7236 5.52156 20.3425 5.6512C19.0694 5.81182 17.8948 6.42492 17.0292 7.3805C16.1636 8.33608 15.6636 9.57163 15.6191 10.8655C15.5198 12.1861 15.5647 13.5018 15.5567 14.8223C15.5567 15.2393 15.422 15.401 15.004 15.3864C14.2704 15.3622 13.537 15.3751 12.8034 15.3686C12.2316 15.3686 12.0025 15.5609 12.0025 16.1267C11.9961 17.2538 11.9988 18.3804 12.0105 19.5064C11.9961 19.6116 12.0059 19.7187 12.0395 19.8194C12.073 19.92 12.1294 20.0113 12.2039 20.0862C12.2785 20.1611 12.3692 20.2176 12.469 20.251C12.5689 20.2845 12.6752 20.2941 12.7793 20.279C13.5449 20.2936 14.3121 20.2984 15.0761 20.279C15.4557 20.2677 15.6303 20.3809 15.6271 20.7931C15.5961 24.2844 15.5732 27.7756 15.5583 31.2669C15.5583 31.6677 15.3309 31.7017 15.0313 31.7017H10.6779C8.71576 31.7017 6.75355 31.7098 4.79305 31.7017C3.66786 31.7765 2.55274 31.4479 1.64417 30.7739C1.13079 30.3867 0.714627 29.8832 0.429203 29.304C0.143778 28.7249 -0.00293815 28.0862 0.000814687 27.4394C0.0029503 23.557 0.0029503 19.6756 0.000814687 15.7953Z" fill="#F0F0F0"/>
</g>
</g>
</svg>
