<svg width="33" height="33" viewBox="0 0 33 33" fill="none" xmlns="http://www.w3.org/2000/svg">
<path id="Vector" d="M7.38755 33H0.545698V10.9678H7.38755V33ZM3.9625 7.96243C1.77499 7.96243 0 6.14979 0 3.96236C0 2.91147 0.417477 1.90363 1.16059 1.16055C1.9037 0.417461 2.91158 0 3.9625 0C5.01342 0 6.0213 0.417461 6.76441 1.16055C7.50752 1.90363 7.925 2.91147 7.925 3.96236C7.925 6.14979 6.15001 7.96243 3.9625 7.96243ZM32.9941 33H26.1676V22.275C26.1676 19.7187 26.1157 16.4411 22.6105 16.4411C19.0535 16.4411 18.5078 19.2178 18.5078 22.0911V33H11.673V10.9678H18.2343V13.9731H18.3298C19.2432 12.2418 21.4743 10.415 24.8027 10.415C31.7271 10.415 33 14.9749 33 20.8973V33H32.9941Z" fill="#F0F0F0"/>
</svg>
