<svg width="27" height="33" viewBox="0 0 27 33" fill="none" xmlns="http://www.w3.org/2000/svg">
<path id="Vector" d="M25.7627 4.48968C25.5829 4.37336 25.403 4.37336 25.2232 4.43152C23.7244 5.07129 22.1656 4.606 21.2663 3.44278C20.8467 2.91932 20.6069 2.22139 20.6069 1.58161C20.6069 1.40713 20.5469 1.29081 20.427 1.17448C20.3071 1.05816 20.1872 1 20.0073 1H13.8922C13.5325 1 13.2927 1.23265 13.2927 1.58161V22.2289C13.2927 22.2871 13.2927 22.2871 13.2927 22.3452C13.1728 23.3921 12.3335 24.1482 11.2543 24.1482C10.1153 24.1482 9.15603 23.2176 9.15603 22.1126C9.15603 21.0657 9.9354 20.2514 11.0145 20.1351C11.3143 20.0769 11.5541 19.8443 11.5541 19.5535V12.8068C11.5541 12.4578 11.3143 12.2251 10.9546 12.2251C10.9546 12.2251 10.8946 12.2251 10.8347 12.2251C5.31909 12.4578 1.0625 16.7617 1.0625 22.1126C1.0625 27.5797 5.61885 32 11.2543 32C16.5301 32 20.9666 28.045 21.3862 22.985C21.4462 22.9268 21.4462 22.8105 21.4462 22.7523V11.5272C22.7651 11.818 24.144 11.9343 25.5829 11.7017C25.8826 11.6435 26.0625 11.4109 26.0625 11.1201V4.95497C26.0625 4.78049 25.9426 4.606 25.7627 4.48968ZM24.8635 10.6548C23.4846 10.7711 22.2256 10.6548 20.9666 10.2477C20.7867 10.1895 20.6069 10.2477 20.427 10.3058C20.2472 10.4221 20.1872 10.5966 20.1872 10.7711V22.5197C20.1872 22.5779 20.1872 22.636 20.1272 22.6942C19.8275 27.2308 15.8707 30.8368 11.1944 30.8368C6.21838 30.8368 2.20159 26.94 2.20159 22.1126C2.20159 17.576 5.67881 13.8537 10.2951 13.4465V19.0882C8.91622 19.4953 7.89703 20.7167 7.89703 22.1126C7.89703 23.8574 9.39583 25.3114 11.1944 25.3114C12.8131 25.3114 14.192 24.1482 14.4318 22.636C14.4918 22.5779 14.4918 22.4615 14.4918 22.4034V2.16323H19.4678C19.5877 2.91932 19.8874 3.5591 20.3071 4.14071C21.3263 5.47842 23.1249 6.17636 24.8635 5.76923V10.6548Z" fill="#F0F0F0" stroke="#F0F0F0"/>
</svg>
