<svg xmlns="http://www.w3.org/2000/svg" width="33" height="32" viewBox="0 0 33 32" fill="none">
  <path d="M31.5666 11.7774C30.1289 6.26617 25.696 1.83322 20.1248 0.455408C14.5537 -0.922401 8.5033 0.874741 4.6694 5.18788C-0.0630761 10.4595 -0.662124 18.3669 3.17178 24.3574C2.87226 26.514 2.63264 28.6705 2.33311 30.8271C2.2133 31.6059 3.17178 32.145 3.83073 31.9653C5.9274 31.3663 8.08397 30.8271 10.1806 30.2281C15.8716 32.5644 22.4611 31.4861 27.0139 27.2927C31.2671 23.3989 33.0043 17.2886 31.5666 11.7774ZM27.3733 23.339C23.779 28.6106 16.7103 30.5875 10.8995 27.9517C10.8995 27.9517 10.8995 27.9517 10.8396 27.9517C10.6 27.8319 10.3004 27.772 9.94102 27.8319C8.26368 28.3111 6.58635 28.7304 4.90902 29.2097C5.08873 27.772 5.26845 26.3942 5.44816 24.9565C5.50807 24.4772 5.62787 23.9381 5.38826 23.4588C5.20854 23.1593 4.96892 22.8598 4.78921 22.5004C4.36987 21.7815 4.01045 21.0027 3.71092 20.224C2.75245 17.4684 2.69254 14.4132 3.59111 11.6576C5.14864 6.80531 9.58159 3.15112 14.6136 2.55207C19.8253 1.83322 25.037 4.34922 27.7327 8.72226C30.4883 13.2151 30.3086 18.966 27.3733 23.339Z" fill="#F0F0F0"/>
  <path d="M24.6773 17.7072L21.9816 15.6105C21.1429 14.9516 20.0047 15.0714 19.2858 15.7902L18.5071 16.569C17.908 16.2096 17.3689 15.7902 16.8297 15.311C16.3505 14.8318 15.9312 14.2327 15.5717 13.6337L16.3505 12.8549C17.0694 12.136 17.1293 10.9979 16.5302 10.1592L14.4336 7.40357C14.0142 6.80452 13.3553 6.4451 12.6364 6.4451C11.9176 6.38519 11.1987 6.68471 10.7195 7.16395L8.38317 9.50024C7.06527 10.8181 6.76575 12.8549 7.60441 14.5322C8.7426 16.6888 10.1803 18.6058 11.8576 20.2831C13.535 21.9604 15.5118 23.3981 17.6085 24.5363C18.2675 24.8958 18.9264 25.0156 19.5854 25.0156C20.6636 25.0156 21.8018 24.5962 22.5806 23.7576L24.9169 21.4213C25.3961 20.942 25.6956 20.2232 25.6357 19.5043C25.6357 18.7855 25.2763 18.1265 24.6773 17.7072ZM23.2395 19.744L20.9033 22.0802C20.3042 22.6793 19.4056 22.7991 18.6868 22.4397C16.7698 21.4213 15.0326 20.1633 13.4751 18.6058C11.9176 17.0482 10.6596 15.311 9.64117 13.394C9.28174 12.6752 9.40155 11.7766 10.0006 11.1776L12.3369 8.84129C12.3369 8.84129 12.3369 8.84129 12.3968 8.84129C12.4567 8.84129 12.4567 8.84129 12.4567 8.90119L14.3736 11.4172L13.5949 12.136C12.9958 12.7351 12.8161 13.6936 13.2355 14.4723C13.7147 15.4308 14.3736 16.2695 15.0925 16.9883C15.8114 17.7072 16.65 18.3661 17.6085 18.8454C18.3873 19.2647 19.2858 19.085 19.8849 18.4859L20.7236 17.6473L23.1796 19.5642C23.1796 19.5642 23.2395 19.5642 23.2395 19.6241C23.2395 19.684 23.2395 19.744 23.2395 19.744Z" fill="#F0F0F0"/>
</svg>