<svg xmlns="http://www.w3.org/2000/svg" width="16" height="17" viewBox="0 0 16 17" fill="none">
  <path d="M15.365 6.45468C14.6686 3.78518 12.5214 1.63796 9.82285 0.970588C7.12433 0.303212 4.19368 1.1737 2.33663 3.26288C0.0443376 5.81632 -0.245826 9.64648 1.61122 12.5481C1.46614 13.5927 1.35007 14.6373 1.20499 15.6819C1.14696 16.0591 1.61122 16.3202 1.9304 16.2332C2.94597 15.943 3.99056 15.6819 5.00614 15.3917C7.76269 16.5234 10.9545 16.0011 13.1597 13.9699C15.2199 12.0839 16.0614 9.12419 15.365 6.45468ZM13.3338 12.0548C11.5928 14.6083 8.16892 15.5658 5.35433 14.2891C5.35433 14.2891 5.35433 14.2891 5.32531 14.2891C5.20925 14.2311 5.06417 14.2021 4.89007 14.2311C4.07761 14.4632 3.26515 14.6663 2.4527 14.8984C2.53974 14.2021 2.62679 13.5347 2.71384 12.8383C2.74286 12.6062 2.80089 12.345 2.68483 12.1129C2.59778 11.9678 2.48171 11.8227 2.39466 11.6486C2.19155 11.3004 2.01745 10.9232 1.87237 10.546C1.40811 9.21124 1.37909 7.7314 1.81434 6.39665C2.56876 4.04632 4.71597 2.27632 7.15335 1.98616C9.67777 1.63796 12.2022 2.85665 13.5079 4.97485C14.8427 7.15107 14.7556 9.93664 13.3338 12.0548Z" fill="#0193C1"/>
  <path d="M12.0279 9.32692L10.7222 8.31135C10.316 7.99217 9.76466 8.0502 9.41647 8.3984L9.03925 8.77561C8.74909 8.60151 8.48794 8.3984 8.2268 8.16626C7.99467 7.93413 7.79155 7.64397 7.61745 7.35381L7.99467 6.97659C8.34286 6.6284 8.37188 6.07709 8.08171 5.67086L7.06614 4.33611C6.86303 4.04594 6.54385 3.87184 6.19565 3.87184C5.84745 3.84283 5.49926 3.98791 5.26713 4.22004L4.13549 5.35168C3.49713 5.99004 3.35205 6.97659 3.75828 7.78905C4.30959 8.83364 5.00598 9.76216 5.81844 10.5746C6.6309 11.3871 7.58844 12.0835 8.60401 12.6348C8.92319 12.8089 9.24237 12.8669 9.56155 12.8669C10.0838 12.8669 10.6352 12.6638 11.0124 12.2576L12.144 11.1259C12.3761 10.8938 12.5212 10.5456 12.4922 10.1974C12.4922 9.84921 12.3181 9.53003 12.0279 9.32692ZM11.3315 10.3135L10.1999 11.4451C9.90975 11.7353 9.4745 11.7933 9.1263 11.6192C8.19778 11.1259 7.35631 10.5166 6.60188 9.76217C5.84746 9.00774 5.23811 8.16627 4.74483 7.23774C4.57073 6.88954 4.62877 6.4543 4.91893 6.16414L6.05057 5.0325C6.05057 5.0325 6.05057 5.0325 6.07959 5.0325C6.1086 5.0325 6.1086 5.0325 6.1086 5.06151L7.03713 6.2802L6.65991 6.6284C6.36975 6.91856 6.2827 7.38282 6.48581 7.76004C6.71795 8.2243 7.03713 8.63053 7.38532 8.97872C7.73352 9.32692 8.13975 9.6461 8.60401 9.87823C8.98122 10.0813 9.41647 9.9943 9.70663 9.70413L10.1129 9.2979L11.3025 10.2264C11.3025 10.2264 11.3315 10.2264 11.3315 10.2554C11.3315 10.2845 11.3315 10.3135 11.3315 10.3135Z" fill="#0193C1"/>
</svg>